<svg width="32" height="32" viewBox="0 0 32 32" fill="none" xmlns="http://www.w3.org/2000/svg">
<rect width="32" height="32" rx="6" fill="black"/>
<path d="M8.89158 17.7995C8.72344 17.8001 8.55858 17.7524 8.41617 17.6618C8.27375 17.5713 8.15962 17.4417 8.08704 17.2882C8.01446 17.1346 7.98641 16.9633 8.00614 16.7942C8.02587 16.6251 8.09258 16.4651 8.19851 16.3329L16.9952 7.1553C17.0612 7.07818 17.1511 7.02606 17.2502 7.0075C17.3493 6.98895 17.4516 7.00505 17.5405 7.05318C17.6294 7.10131 17.6994 7.1786 17.7392 7.27237C17.779 7.36614 17.7861 7.4708 17.7593 7.5692L16.0533 12.9858C16.003 13.1221 15.9861 13.2688 16.0041 13.4132C16.022 13.5576 16.0743 13.6954 16.1565 13.8149C16.2386 13.9343 16.3481 14.0318 16.4756 14.0989C16.6031 14.1661 16.7448 14.2009 16.8886 14.2005H23.1084C23.2766 14.1999 23.4414 14.2476 23.5838 14.3382C23.7262 14.4287 23.8404 14.5583 23.913 14.7118C23.9855 14.8654 24.0136 15.0367 23.9939 15.2058C23.9741 15.3749 23.9074 15.5349 23.8015 15.6671L15.0048 24.8447C14.9388 24.9218 14.8489 24.9739 14.7498 24.9925C14.6507 25.0111 14.5484 24.9949 14.4595 24.9468C14.3706 24.8987 14.3006 24.8214 14.2608 24.7276C14.221 24.6339 14.2139 24.5292 14.2407 24.4308L15.9467 19.0142C15.997 18.8779 16.0139 18.7312 15.9959 18.5868C15.978 18.4424 15.9257 18.3046 15.8435 18.1851C15.7614 18.0657 15.6519 17.9682 15.5244 17.9011C15.3969 17.8339 15.2552 17.7991 15.1114 17.7995H8.89158Z" stroke="white" stroke-width="1.5" stroke-linecap="round" stroke-linejoin="round"/>
</svg>
